<svg width="24" height="24" viewBox="0 0 24 24" fill="none" xmlns="http://www.w3.org/2000/svg">
<mask id="path-1-inside-1_74_1312" fill="white">
<path d="M11.5934 22.6248H5.33366C3.63247 22.6248 2.25217 21.2394 2.25217 19.5433V4.45671C2.25217 2.75552 3.63756 1.37521 5.33366 1.37521H11.6953C12.0773 1.37521 12.3829 1.06961 12.3829 0.687606C12.3829 0.305603 12.0773 0 11.6953 0H5.33366C2.87356 0 0.876953 2.0017 0.876953 4.45671V19.5433C0.876953 22.0034 2.87865 24 5.33366 24H11.5934C11.9754 24 12.281 23.6944 12.281 23.3124C12.281 22.9304 11.9703 22.6248 11.5934 22.6248Z"/>
</mask>
<path d="M11.5934 22.6248H5.33366C3.63247 22.6248 2.25217 21.2394 2.25217 19.5433V4.45671C2.25217 2.75552 3.63756 1.37521 5.33366 1.37521H11.6953C12.0773 1.37521 12.3829 1.06961 12.3829 0.687606C12.3829 0.305603 12.0773 0 11.6953 0H5.33366C2.87356 0 0.876953 2.0017 0.876953 4.45671V19.5433C0.876953 22.0034 2.87865 24 5.33366 24H11.5934C11.9754 24 12.281 23.6944 12.281 23.3124C12.281 22.9304 11.9703 22.6248 11.5934 22.6248Z" fill="#FF314A"/>
<path d="M11.5934 19.6248H5.33366V25.6248H11.5934V19.6248ZM5.33366 19.6248C5.31898 19.6248 5.31162 19.6224 5.30609 19.6201C5.29849 19.6168 5.28804 19.6105 5.2775 19.6C5.26692 19.5894 5.2604 19.5787 5.25698 19.5706C5.25442 19.5645 5.25217 19.5571 5.25217 19.5433H-0.747834C-0.747834 22.893 1.97239 25.6248 5.33366 25.6248V19.6248ZM5.25217 19.5433V4.45671H-0.747834V19.5433H5.25217ZM5.25217 4.45671C5.25217 4.44203 5.25456 4.43466 5.2569 4.42914C5.26013 4.42153 5.26643 4.41109 5.27699 4.40054C5.28757 4.38997 5.29828 4.38345 5.30635 4.38003C5.31241 4.37746 5.31982 4.37521 5.33366 4.37521V-1.62479C1.98394 -1.62479 -0.747834 1.09544 -0.747834 4.45671H5.25217ZM5.33366 4.37521H11.6953V-1.62479H5.33366V4.37521ZM11.6953 4.37521C13.7342 4.37521 15.3829 2.72646 15.3829 0.687606H9.3829C9.3829 -0.587243 10.4204 -1.62479 11.6953 -1.62479V4.37521ZM15.3829 0.687606C15.3829 -1.35125 13.7342 -3 11.6953 -3V3C10.4204 3 9.3829 1.96246 9.3829 0.687606H15.3829ZM11.6953 -3H5.33366V3H11.6953V-3ZM5.33366 -3C1.21447 -3 -2.12305 0.347074 -2.12305 4.45671H3.87695C3.87695 3.65632 4.53264 3 5.33366 3V-3ZM-2.12305 4.45671V19.5433H3.87695V4.45671H-2.12305ZM-2.12305 19.5433C-2.12305 23.6625 1.22403 27 5.33366 27V21C4.53327 21 3.87695 20.3443 3.87695 19.5433H-2.12305ZM5.33366 27H11.5934V21H5.33366V27ZM11.5934 27C13.6323 27 15.281 25.3513 15.281 23.3124H9.28103C9.28103 22.0375 10.3186 21 11.5934 21V27ZM15.281 23.3124C15.281 21.2591 13.6127 19.6248 11.5934 19.6248V25.6248C10.328 25.6248 9.28103 24.6017 9.28103 23.3124H15.281Z" fill="#FF314A" mask="url(#path-1-inside-1_74_1312)"/>
<mask id="path-3-inside-2_74_1312" fill="white">
<path d="M22.9209 11.5161L18.5507 7.14601C18.2808 6.87606 17.8479 6.87606 17.5779 7.14601C17.308 7.41596 17.308 7.8489 17.5779 8.11885L20.7765 11.3175H6.82579C6.44379 11.3175 6.13818 11.6231 6.13818 12.0051C6.13818 12.3871 6.44379 12.6927 6.82579 12.6927H20.7765L17.5779 15.8913C17.308 16.1613 17.308 16.5942 17.5779 16.8642C17.7103 16.9966 17.8886 17.0679 18.0618 17.0679C18.2349 17.0679 18.4132 17.0017 18.5456 16.8642L22.9158 12.4941C23.1908 12.219 23.1908 11.781 22.9209 11.5161Z"/>
</mask>
<path d="M22.9209 11.5161L18.5507 7.14601C18.2808 6.87606 17.8479 6.87606 17.5779 7.14601C17.308 7.41596 17.308 7.8489 17.5779 8.11885L20.7765 11.3175H6.82579C6.44379 11.3175 6.13818 11.6231 6.13818 12.0051C6.13818 12.3871 6.44379 12.6927 6.82579 12.6927H20.7765L17.5779 15.8913C17.308 16.1613 17.308 16.5942 17.5779 16.8642C17.7103 16.9966 17.8886 17.0679 18.0618 17.0679C18.2349 17.0679 18.4132 17.0017 18.5456 16.8642L22.9158 12.4941C23.1908 12.219 23.1908 11.781 22.9209 11.5161Z" fill="#FF314A"/>
<path d="M22.9209 11.5161L20.7995 13.6375L20.8096 13.6476L20.8198 13.6576L22.9209 11.5161ZM18.5507 7.14601L16.4294 9.26733L18.5507 7.14601ZM17.5779 8.11885L15.4566 10.2402V10.2402L17.5779 8.11885ZM20.7765 11.3175V14.3175H28.0192L22.8979 9.19617L20.7765 11.3175ZM20.7765 12.6927L22.8979 14.814L28.0192 9.6927H20.7765V12.6927ZM17.5779 15.8913L15.4566 13.77V13.77L17.5779 15.8913ZM18.5456 16.8642L16.4243 14.7429L16.4043 14.7629L16.3847 14.7833L18.5456 16.8642ZM22.9158 12.4941L25.0371 14.6154V14.6154L22.9158 12.4941ZM25.0422 9.39481L20.6721 5.02469L16.4294 9.26733L20.7995 13.6375L25.0422 9.39481ZM20.6721 5.02469C19.2305 3.58317 16.8981 3.58317 15.4566 5.02469L19.6992 9.26733C18.7976 10.169 17.331 10.169 16.4294 9.26733L20.6721 5.02469ZM15.4566 5.02469C14.0151 6.46621 14.0151 8.79864 15.4566 10.2402L19.6992 5.99753C20.6008 6.89915 20.6008 8.36571 19.6992 9.26733L15.4566 5.02469ZM15.4566 10.2402L18.6552 13.4388L22.8979 9.19617L19.6992 5.99753L15.4566 10.2402ZM20.7765 8.31749H6.82579V14.3175H20.7765V8.31749ZM6.82579 8.31749C4.78693 8.31749 3.13818 9.96624 3.13818 12.0051H9.13818C9.13818 13.2799 8.10064 14.3175 6.82579 14.3175V8.31749ZM3.13818 12.0051C3.13818 14.044 4.78693 15.6927 6.82579 15.6927V9.6927C8.10064 9.6927 9.13818 10.7302 9.13818 12.0051H3.13818ZM6.82579 15.6927H20.7765V9.6927H6.82579V15.6927ZM18.6552 10.5714L15.4566 13.77L19.6992 18.0127L22.8979 14.814L18.6552 10.5714ZM15.4566 13.77C14.0151 15.2115 14.0151 17.544 15.4566 18.9855L19.6992 14.7429C20.6008 15.6445 20.6008 17.111 19.6992 18.0127L15.4566 13.77ZM15.4566 18.9855C16.1486 19.6775 17.0886 20.0679 18.0618 20.0679V14.0679C18.6886 14.0679 19.2721 14.3157 19.6992 14.7429L15.4566 18.9855ZM18.0618 20.0679C18.9838 20.0679 19.9642 19.7161 20.7066 18.9451L16.3847 14.7833C16.8622 14.2873 17.4861 14.0679 18.0618 14.0679V20.0679ZM20.667 18.9855L25.0371 14.6154L20.7944 10.3727L16.4243 14.7429L20.667 18.9855ZM25.0371 14.6154C26.4579 13.1946 26.5162 10.8409 25.0219 9.3747L20.8198 13.6576C19.8654 12.7211 19.9237 11.2434 20.7944 10.3727L25.0371 14.6154Z" fill="#FF314A" mask="url(#path-3-inside-2_74_1312)"/>
</svg>
