<svg width="25" height="24" viewBox="0 0 25 24" fill="none" xmlns="http://www.w3.org/2000/svg">
<path d="M22.75 8.52V3.98C22.75 2.57 22.11 2 20.52 2H16.48C14.89 2 14.25 2.57 14.25 3.98V8.51C14.25 9.93 14.89 10.49 16.48 10.49H20.52C22.11 10.5 22.75 9.93 22.75 8.52Z" fill="#A85CF9"/>
<path d="M22.75 19.77V15.73C22.75 14.14 22.11 13.5 20.52 13.5H16.48C14.89 13.5 14.25 14.14 14.25 15.73V19.77C14.25 21.36 14.89 22 16.48 22H20.52C22.11 22 22.75 21.36 22.75 19.77Z" fill="#A85CF9"/>
<path d="M11.25 8.52V3.98C11.25 2.57 10.61 2 9.02 2H4.98C3.39 2 2.75 2.57 2.75 3.98V8.51C2.75 9.93 3.39 10.49 4.98 10.49H9.02C10.61 10.5 11.25 9.93 11.25 8.52Z" fill="#A85CF9"/>
<path d="M11.25 19.77V15.73C11.25 14.14 10.61 13.5 9.02 13.5H4.98C3.39 13.5 2.75 14.14 2.75 15.73V19.77C2.75 21.36 3.39 22 4.98 22H9.02C10.61 22 11.25 21.36 11.25 19.77Z" fill="#A85CF9"/>
</svg>
