<svg width="234" height="38" viewBox="0 0 234 38" fill="none" xmlns="http://www.w3.org/2000/svg">
<circle cx="19" cy="19" r="18" stroke="#14C38E" stroke-width="2"/>
<path d="M22.4375 14.3984V13.4141C22.4375 13.3238 22.3672 13.25 22.2812 13.25H14.7812C14.6953 13.25 14.625 13.3238 14.625 13.4141V14.3984C14.625 14.4887 14.6953 14.5625 14.7812 14.5625H22.2812C22.3672 14.5625 22.4375 14.4887 22.4375 14.3984ZM14.7812 16.2031C14.6953 16.2031 14.625 16.277 14.625 16.3672V17.3516C14.625 17.4418 14.6953 17.5156 14.7812 17.5156H18.375C18.4609 17.5156 18.5312 17.4418 18.5312 17.3516V16.3672C18.5312 16.277 18.4609 16.2031 18.375 16.2031H14.7812ZM17.5937 25.4727H13.0625V11.0352H24V18.0898C24 18.1801 24.0703 18.2539 24.1562 18.2539H25.25C25.3359 18.2539 25.4062 18.1801 25.4062 18.0898V10.2148C25.4062 9.85186 25.127 9.55859 24.7812 9.55859H12.2812C11.9355 9.55859 11.6562 9.85186 11.6562 10.2148V26.293C11.6562 26.656 11.9355 26.9492 12.2812 26.9492H17.5937C17.6797 26.9492 17.75 26.8754 17.75 26.7852V25.6367C17.75 25.5465 17.6797 25.4727 17.5937 25.4727ZM26.2988 26.5288L24.4766 24.6154C24.9121 24.0104 25.1719 23.2558 25.1719 22.4375C25.1719 20.4441 23.6328 18.8281 21.7344 18.8281C19.8359 18.8281 18.2969 20.4441 18.2969 22.4375C18.2969 24.4309 19.8359 26.0469 21.7344 26.0469C22.4336 26.0469 23.082 25.8274 23.625 25.4521L25.4746 27.3942C25.5059 27.4271 25.5449 27.4414 25.584 27.4414C25.623 27.4414 25.6641 27.425 25.6934 27.3942L26.2988 26.7585C26.3132 26.7434 26.3247 26.7255 26.3325 26.7058C26.3403 26.6861 26.3443 26.665 26.3443 26.6437C26.3443 26.6223 26.3403 26.6012 26.3325 26.5815C26.3247 26.5618 26.3132 26.5439 26.2988 26.5288ZM21.7344 24.7344C20.5254 24.7344 19.5469 23.7069 19.5469 22.4375C19.5469 21.1681 20.5254 20.1406 21.7344 20.1406C22.9434 20.1406 23.9219 21.1681 23.9219 22.4375C23.9219 23.7069 22.9434 24.7344 21.7344 24.7344Z" fill="#14C38E"/>
<line x1="38" y1="18" x2="63" y2="18" stroke="#14C38E" stroke-width="2"/>
<line x1="63" y1="18" x2="88" y2="18" stroke="#14C38E" stroke-width="2"/>
<circle cx="107" cy="19" r="18" stroke="#14C38E" stroke-width="2"/>
<path fill-rule="evenodd" clip-rule="evenodd" d="M104.685 25.5C104.386 25.5 104.1 25.3765 103.895 25.1588L98.6272 19.5482C98.2167 19.1127 98.2394 18.4269 98.6749 18.0174C99.1115 17.6079 99.7972 17.6296 100.206 18.0651L104.674 22.822L113.783 12.8532C114.188 12.4101 114.873 12.3808 115.315 12.7838C115.756 13.1868 115.786 13.8726 115.383 14.3135L105.485 25.1468C105.282 25.37 104.994 25.4978 104.693 25.5H104.685Z" fill="#14C38E" stroke="#14C38E"/>
<mask id="mask0_93_739" style="mask-type:alpha" maskUnits="userSpaceOnUse" x="98" y="12" width="18" height="14">
<path fill-rule="evenodd" clip-rule="evenodd" d="M104.685 25.5C104.386 25.5 104.1 25.3765 103.895 25.1588L98.6272 19.5482C98.2167 19.1127 98.2394 18.4269 98.6749 18.0174C99.1115 17.6079 99.7972 17.6296 100.206 18.0651L104.674 22.822L113.783 12.8532C114.188 12.4101 114.873 12.3808 115.315 12.7838C115.756 13.1868 115.786 13.8726 115.383 14.3135L105.485 25.1468C105.282 25.37 104.994 25.4978 104.693 25.5H104.685Z" fill="white"/>
</mask>
<g mask="url(#mask0_93_739)">
<rect width="26" height="26" transform="translate(94 6)" fill="#059659"/>
<rect x="94" y="6" width="26" height="26" fill="#14C38E"/>
</g>
</svg>
